<?xml version="1.0" encoding="utf-8"?>
<svg version="1.1" xmlns="http://www.w3.org/2000/svg" xmlns:xlink="http://www.w3.org/1999/xlink" x="0px" y="0px" viewBox="0 0 246 84" xml:space="preserve">
	<g fill="#FFFFFF">
		<path d="M103.85,0.07c-4.89,0-9.43,2.24-12.4,5.95c-0.68,0.85-1.27,1.77-1.77,2.76L77.87,32.31L66.04,8.78
		c-2.68-5.34-8.16-8.71-14.16-8.71c-4.89,0-9.43,2.24-12.4,5.95c-0.68,0.85-1.27,1.77-1.77,2.76L-0.06,84.02h21.75l28.39-58.11
		c0.74-1.51,2.9-1.51,3.64,0l13.49,27.62L51.9,84.02h21.75L87.25,56.2l1.3-2.64l-0.01-0.01l13.5-27.64c0.74-1.51,2.9-1.51,3.64,0
		l28.39,58.11h21.75L118.01,8.78C115.32,3.44,109.84,0.07,103.85,0.07z"/>
		<path d="M124.5,7.68c-0.8,5.56,3.51,10.32,8.94,10.32h27.51v65.97h20.35V18V0.02h-47.58
		C129.19,0.02,125.14,3.22,124.5,7.68z"/>
		<path d="M230.97,42.05L230.97,42.05c0-4.96-3.36-8.99-7.51-8.99h-33.5v17.98h33.5
		C227.61,51.03,230.97,47.01,230.97,42.05z"/>
		<path d="M238.43,65.99h-48.47v17.98h48.47c4.15,0,7.51-4.02,7.51-8.99C245.94,70.01,242.58,65.99,238.43,65.99z"/>
		<path d="M245.94,9.01c0-4.96-3.36-8.99-7.51-8.99h-48.47V18h48.47C242.58,18,245.94,13.97,245.94,9.01z"/>
	</g>
</svg>
